<?xml version="1.0" standalone="no"?>
<!DOCTYPE svg PUBLIC "-//W3C//DTD SVG 20010904//EN"
 "http://www.w3.org/TR/2001/REC-SVG-20010904/DTD/svg10.dtd">
<svg version="1.0" xmlns="http://www.w3.org/2000/svg"
  viewBox="0 0 200.000000 200.000000"
 preserveAspectRatio="xMidYMid meet">
<metadata>
Created by potrace 1.16, written by Peter Selinger 2001-2019
</metadata>
<g transform="translate(0.000000,200.000000) scale(0.100000,-0.100000)"
fill="#000000" stroke="none">
<path d="M791 1765 c-24 -8 -59 -28 -77 -46 -54 -52 -64 -84 -64 -206 l-1
-108 -127 -62 c-448 -218 -408 -448 104 -598 91 -26 419 -95 454 -95 18 0 20
-7 20 -81 0 -79 1 -81 23 -77 12 2 124 76 250 164 202 141 227 162 225 184 -2
20 -47 56 -238 188 -129 89 -241 161 -250 160 -12 -3 -16 -23 -18 -100 l-3
-96 -117 5 c-64 2 -178 11 -252 18 -251 26 -333 78 -249 156 29 27 147 99 162
99 4 0 7 -29 7 -64 l0 -63 46 -7 c26 -3 62 -6 80 -6 l33 0 3 221 c3 218 3 221
27 240 22 18 44 19 388 19 l364 0 24 -25 25 -24 0 -566 c0 -552 0 -565 -20
-585 -19 -19 -33 -20 -392 -20 -205 0 -378 4 -385 8 -21 13 -33 61 -33 131 l0
67 -67 14 c-38 7 -74 15 -82 18 -11 4 -12 -20 -10 -131 4 -132 5 -136 34 -179
17 -23 51 -54 75 -68 l45 -25 390 -3 c259 -2 407 0 441 8 60 13 117 56 144
111 19 37 20 61 20 659 0 595 -1 622 -19 659 -26 50 -81 97 -128 110 -60 17
-797 13 -852 -4z"/>
</g>
</svg>
