<svg xmlns="http://www.w3.org/2000/svg" width="38" height="24" viewBox="0 0 38 24"><g><g><path fill="#ff5f00" d="M14.163 21.615h10.173V3.318H14.163z"/></g><g><path fill="#eb001b" d="M14.81 12.47c0-3.712 1.737-7.018 4.44-9.149A11.569 11.569 0 0 0 12.066.833C5.645.833.44 6.043.44 12.47c0 6.427 5.205 11.637 11.625 11.637 2.713 0 5.208-.93 7.186-2.488a11.62 11.62 0 0 1-4.441-9.149"/></g><g><path fill="#f79e1b" d="M26.435 24.106a11.57 11.57 0 0 1-7.186-2.488 11.62 11.62 0 0 0 4.441-9.149c0-3.711-1.736-7.017-4.44-9.148A11.57 11.57 0 0 1 26.434.833c6.42 0 11.625 5.21 11.625 11.636 0 6.427-5.205 11.637-11.625 11.637zm10.433-4.426v-.375h-.15v-.076h.384v.076h-.151v.375zm.75.006v-.346l-.128.298h-.087l-.128-.297v.345h-.085v-.458h.12l.137.315.137-.315h.119v.458z"/></g></g></svg>