<svg xmlns="http://www.w3.org/2000/svg" width="20" height="20" viewBox="0 0 20 20"><g><g><path fill="#0aab14" d="M12.727 10c0 1.545-1.182 2.727-2.727 2.727S7.273 11.545 7.273 10 8.455 7.273 10 7.273 12.727 8.455 12.727 10zm-1.818 0c0-.545-.364-.91-.909-.91s-.91.365-.91.91.365.91.91.91.91-.365.91-.91zm5.455 0A6.324 6.324 0 0 1 10 16.364 6.324 6.324 0 0 1 3.636 10 6.324 6.324 0 0 1 10 3.636 6.324 6.324 0 0 1 16.364 10zm-1.819 0c0-2.545-2-4.545-4.545-4.545s-4.545 2-4.545 4.545 2 4.545 4.545 4.545 4.545-2 4.545-4.545zM20 10c0 5.545-4.455 10-10 10S0 15.545 0 10 4.455 0 10 0s10 4.455 10 10zm-1.818 0A8.148 8.148 0 0 0 10 1.818 8.148 8.148 0 0 0 1.818 10 8.148 8.148 0 0 0 10 18.182 8.148 8.148 0 0 0 18.182 10z"/></g></g></svg>