<svg width="22" height="16" viewBox="0 0 22 16" fill="none" xmlns="http://www.w3.org/2000/svg">
<path d="M17.4023 11.2083L14.1367 8L17.4023 4.79167L16.1133 3.54167L12.8477 6.75L9.53906 3.54167L8.25 4.79167L11.5586 8L8.25 11.2083L9.53906 12.4583L12.8477 9.25L16.1133 12.4583L17.4023 11.2083ZM20.1523 0C20.6393 0 21.069 0.180556 21.4414 0.541667C21.8138 0.902778 22 1.31944 22 1.79167V14.2083C22 14.6806 21.8138 15.0972 21.4414 15.4583C21.069 15.8194 20.6393 16 20.1523 16H6.40234C5.82943 16 5.34245 15.7361 4.94141 15.2083L0 8L4.94141 0.791667C5.34245 0.263889 5.82943 0 6.40234 0H20.1523Z" />
</svg>
