<svg width="22" height="22" viewBox="0 0 22 22" fill="none" xmlns="http://www.w3.org/2000/svg">
<path d="M7.39062 15.3085L6.69148 14.6094L9.9473 11.3536L10.3009 11L9.9473 10.6464L6.69148 7.39062L7.39062 6.69148L10.6464 9.9473L11 10.3009L11.3536 9.9473L14.6094 6.69148L15.3085 7.39062L12.0527 10.6464L11.6991 11L12.0527 11.3536L15.3085 14.6094L14.6094 15.3085L11.3536 12.0527L11 11.6991L10.6464 12.0527L7.39062 15.3085ZM3.5655 18.4288L3.56546 18.4289L3.57116 18.4345C5.63297 20.4636 8.11812 21.4844 11 21.4844C13.8821 21.4844 16.3532 20.4633 18.3848 18.4317C20.446 16.3705 21.4844 13.8845 21.4844 11C21.4844 8.11667 20.4467 5.64569 18.3848 3.6152C16.3543 1.55331 13.8833 0.515625 11 0.515625C8.11555 0.515625 5.62953 1.55399 3.56832 3.6152C1.53667 5.64685 0.515625 8.11793 0.515625 11C0.515625 13.8819 1.53642 16.367 3.5655 18.4288Z" fill="#DB4437" stroke="white"/>
</svg>
