<svg width="18" height="18" viewBox="0 0 18 18" fill="none" xmlns="http://www.w3.org/2000/svg">
<path d="M11.0156 0.234375C13.0469 0.671875 14.7188 1.71875 16.0312 3.375C17.3438 5 18 6.875 18 9C18 11.125 17.3438 13.0156 16.0312 14.6719C14.7188 16.2969 13.0469 17.3281 11.0156 17.7656V15.7031C12.4844 15.2656 13.6719 14.4375 14.5781 13.2188C15.5156 12 15.9844 10.5938 15.9844 9C15.9844 7.40625 15.5156 6 14.5781 4.78125C13.6719 3.5625 12.4844 2.73438 11.0156 2.29688V0.234375ZM11.0156 4.96875C12.6719 5.78125 13.5 7.125 13.5 9C13.5 10.875 12.6719 12.2188 11.0156 13.0312V4.96875ZM0 6H3.98438L9 0.984375V17.0156L3.98438 12H0V6Z" />
</svg>
