<svg width="19" height="19" viewBox="0 0 19 19" fill="none" xmlns="http://www.w3.org/2000/svg">
<path d="M1.28125 0.015625L19 17.7344L17.7344 19L14.5469 15.8125C14.3594 15.9375 14.1719 16 13.9844 16H1.98438C1.70312 16 1.46875 15.9062 1.28125 15.7188C1.09375 15.5312 1 15.2969 1 15.0156V4.98438C1 4.70312 1.09375 4.46875 1.28125 4.28125C1.46875 4.09375 1.70312 4 1.98438 4H2.73438L0.015625 1.28125L1.28125 0.015625ZM19 4.51562V15.2031L7.79688 4H13.9844C14.2656 4 14.5 4.09375 14.6875 4.28125C14.9062 4.46875 15.0156 4.70312 15.0156 4.98438V8.5L19 4.51562Z" fill="white"/>
</svg>
