<svg width="38" height="38" viewBox="0 0 38 38" fill="none" xmlns="http://www.w3.org/2000/svg">
<g clip-path="url(#clip0)">
<path d="M37.9514 37.2262L32.4755 23.9703C32.3894 23.7618 32.1874 23.6261 31.9633 23.6261H6.0371C5.81304 23.6261 5.61094 23.7619 5.52492 23.9703L0.0489849 37.2262C-0.0223393 37.3987 -0.00333933 37.5958 0.0996763 37.7512C0.202618 37.9067 0.37577 38 0.561243 38H37.4392C37.6246 38 37.7978 37.9066 37.9008 37.7512C38.0037 37.5958 38.0226 37.3988 37.9514 37.2262Z" fill="#A8EEFC"/>
<path d="M35.673 38H37.4394C37.6248 38 37.798 37.9066 37.901 37.7512C38.0039 37.5958 38.0229 37.3988 37.9517 37.2262L32.4758 23.9703C32.3897 23.7618 32.1877 23.6261 31.9636 23.6261H29.7354L35.673 38Z" fill="#7EE5F2"/>
<path d="M9.14136 28.6255L11.0309 23.6136H6.00191C5.77784 23.6136 5.57575 23.7495 5.48973 23.9578L3.56152 28.6255H9.14136Z" fill="#4CE166"/>
<path d="M31.9277 23.6136H14.4658L19.5589 28.0548H34.1324L32.44 23.9579C32.3538 23.7495 32.1518 23.6136 31.9277 23.6136Z" fill="#4CE166"/>
<path d="M34.2632 28.3715L34.3681 28.6254L34.2632 28.3715Z" fill="#4CE166"/>
<path d="M35.8166 32.1314L34.1327 28.0548H19.5592L14.4662 23.6136H11.0496H10.6148L8.77122 28.0537H3.79775L2.68061 30.7579L2.11328 32.1314H7.09202L4.67301 37.9876H9.1988L13.0841 28.4746L24.2887 37.9876H30.9036L24.2073 32.1314H35.8166Z" fill="#FFDB56"/>
<path d="M18.9651 0C12.3573 0 6.98145 5.41626 6.98145 12.0738C6.98145 14.3689 7.60132 16.8039 8.82407 19.3112C9.79159 21.2954 11.1378 23.331 12.8252 25.3615C15.688 28.8064 18.5069 31.018 18.6256 31.1106C18.7256 31.1886 18.8453 31.2274 18.9651 31.2274C19.0849 31.2274 19.2047 31.1884 19.3047 31.1106C19.4233 31.018 22.2422 28.8064 25.105 25.3615C26.7924 23.331 28.1387 21.2954 29.1061 19.3112C30.3289 16.8039 30.9488 14.3689 30.9488 12.0738C30.9488 5.41626 25.5729 0 18.9651 0ZM18.9651 7.4811C21.4826 7.4811 23.5235 9.53733 23.5235 12.0738C23.5235 14.6102 21.4826 16.6664 18.9651 16.6664C16.4476 16.6664 14.4067 14.6102 14.4067 12.0738C14.4067 9.53733 16.4476 7.4811 18.9651 7.4811Z" fill="#FF4A4A"/>
<path d="M18.9653 0C18.5709 0 18.1811 0.0198906 17.7964 0.0575195C23.8577 0.651418 28.6112 5.81355 28.6112 12.0738C28.6112 14.3689 27.9913 16.8039 26.7686 19.3112C25.801 21.2954 24.4548 23.331 22.7674 25.3615C20.804 27.7241 18.8616 29.5063 17.7964 30.423C18.2844 30.8429 18.5885 31.0815 18.6256 31.1105C18.7257 31.1885 18.8454 31.2273 18.9652 31.2273C19.085 31.2273 19.2048 31.1884 19.3047 31.1105C19.4233 31.0179 22.2422 28.8063 25.1051 25.3614C26.7925 23.3309 28.1388 21.2953 29.1062 19.3111C30.329 16.8038 30.9489 14.3688 30.9489 12.0737C30.9489 5.41626 25.5731 0 18.9653 0Z" fill="#E7343F"/>
<path d="M9.19873 37.9876H24.2886L13.0841 28.4746L9.19873 37.9876Z" fill="#4CE166"/>
<path d="M31.5347 28.0548L33.2186 32.1313H35.8169L34.133 28.0548H31.5347Z" fill="#FFBB24"/>
<path d="M31.5342 28.0549H34.1326L32.4402 23.9579C32.3541 23.7495 32.152 23.6138 31.928 23.6138H29.6997L31.5342 28.0549Z" fill="#44C868"/>
</g>
<defs>
<clipPath id="clip0">
<rect width="38" height="38" fill="white"/>
</clipPath>
</defs>
</svg>
