<svg width="125" height="125" viewBox="0 0 125 125" fill="none" xmlns="http://www.w3.org/2000/svg">
<g opacity="0.5">
<path d="M125 62.5C125 97.0182 97.0182 125 62.5 125C27.9818 125 0 97.0182 0 62.5C0 27.9818 27.9818 0 62.5 0C97.0182 0 125 27.9818 125 62.5Z" fill="#84D589"/>
<path d="M104.168 40.5273V84.4727H101.727C100.359 84.4727 99.2851 85.5465 99.2851 86.9141V89.3555H67.3838C67.3838 87.5492 66.3586 86.0834 64.9424 85.2051L62.501 79.5898L60.0596 85.2051C58.6434 86.0834 57.6182 87.5492 57.6182 89.3555H25.7168V86.9141C25.7168 85.5465 24.643 84.4727 23.2754 84.4727H20.834V40.5273H23.2754C24.643 40.5273 25.7168 39.4526 25.7168 38.0859V35.6445H57.6182C57.6182 37.4508 58.6434 38.9156 60.0596 39.7949L62.501 45.4102L64.9424 39.7949C66.3586 38.9156 67.3838 37.4508 67.3838 35.6445H99.2851V38.0859C99.2851 39.4526 100.359 40.5273 101.727 40.5273H104.168Z" fill="#D80A61"/>
<path d="M34.9289 73.9914L31.4766 70.5391L51.0078 51.0078L54.4601 54.4601L34.9289 73.9914Z" fill="#0AAB14"/>
<path d="M60.0586 55.1758H64.9414V69.8242H60.0586V55.1758Z" fill="#E63950"/>
<path d="M35.6445 60.0586C32.9533 60.0586 30.7617 57.8671 30.7617 55.1758C30.7617 52.4845 32.9533 50.293 35.6445 50.293C38.3358 50.293 40.5273 52.4845 40.5273 55.1758C40.5273 57.8671 38.3358 60.0586 35.6445 60.0586Z" fill="#0AAB14"/>
<path d="M50.293 74.707C47.6017 74.707 45.4102 72.5155 45.4102 69.8242C45.4102 67.1329 47.6017 64.9414 50.293 64.9414C52.9842 64.9414 55.1758 67.1329 55.1758 69.8242C55.1758 72.5155 52.9842 74.707 50.293 74.707Z" fill="#0AAB14"/>
<path d="M74.707 45.4102H89.5185V50.293H74.707V45.4102Z" fill="#DD544F"/>
<path d="M69.8242 55.1758H94.4014V60.0586H69.8242V55.1758Z" fill="#DD544F"/>
<path d="M69.8242 64.9414H94.4014V69.8242H69.8242V64.9414Z" fill="#DD544F"/>
<path d="M69.8242 74.707H94.4014V79.5898H69.8242V74.707Z" fill="#DD544F"/>
<path d="M64.9414 39.7969V50.2949H60.0586V39.7969C60.791 40.2365 61.5721 40.5293 62.5 40.5293C63.4279 40.5293 64.209 40.2365 64.9414 39.7969Z" fill="#E63950"/>
<path d="M64.9414 74.7109V85.209C64.209 84.7693 63.4279 84.4766 62.5 84.4766C61.5721 84.4766 60.791 84.7693 60.0586 85.209V74.7109H64.9414Z" fill="#E63950"/>
</g>
</svg>
