<svg xmlns="http://www.w3.org/2000/svg" width="42" height="48" viewBox="0 0 42 48"><g><g><g><path fill="#e2e5e7" d="M9 0C7.35 0 6 1.35 6 3v42c0 1.65 1.35 3 3 3h30c1.65 0 3-1.35 3-3V12L30 0z"/></g><g><path fill="#b0b7bd" d="M33 12h9L30 0v9c0 1.65 1.35 3 3 3z"/></g><g><path fill="#cad1d8" d="M42 21l-9-9h9z"/></g><g><path fill="#50bee8" d="M36 39c0 .825-.675 1.5-1.5 1.5h-33C.675 40.5 0 39.825 0 39V24c0-.825.675-1.5 1.5-1.5h33c.825 0 1.5.675 1.5 1.5z"/></g><g><g><path fill="#fff" d="M8.425 29.163c3.381 0 3.239 5.373 0 5.373h-1.99v-5.373zM8.532 36c5.253 0 5.375-8.3-.106-8.3H5.678c-.396 0-.828.312-.828.745v6.811c0 .526.432.744.828.744z"/></g><g><path fill="#fff" d="M21.097 31.803c0 1.884-1.474 2.844-2.854 2.844-1.342 0-2.807-.96-2.807-2.844 0-1.894 1.463-2.843 2.807-2.843 1.38 0 2.854.947 2.854 2.843zm1.571-.002c0-2.842-2.195-4.294-4.293-4.4-2.22 0-4.523 1.45-4.523 4.4 0 2.939 2.304 4.415 4.523 4.319 2.098 0 4.293-1.474 4.293-4.318z"/></g><g><path fill="#fff" d="M24.08 31.79c0-2.315 1.452-4.306 4.21-4.306 1.044 0 1.872.312 2.747 1.068.324.299.36.827.036 1.163a.815.815 0 0 1-1.104-.036c-.491-.516-.995-.658-1.679-.658-1.846 0-2.733 1.307-2.733 2.77 0 1.488.875 2.854 2.733 2.854.684 0 1.32-.277 1.872-.767.37-.288.887-.146 1.103.144.192.263.286.707-.132 1.126-.84.781-1.847.938-2.844.938-2.901 0-4.21-1.982-4.21-4.296z"/></g></g><g><path fill="#cad1d8" d="M34.5 40.5H6V42h28.5c.825 0 1.5-.675 1.5-1.5V39c0 .825-.675 1.5-1.5 1.5z"/></g></g></g></svg>