<svg xmlns="http://www.w3.org/2000/svg" width="42" height="48" viewBox="0 0 42 48"><g><g><g><path fill="#e2e5e7" d="M9 0C7.35 0 6 1.35 6 3v42c0 1.65 1.35 3 3 3h30c1.65 0 3-1.35 3-3V12L30 0z"/></g><g><path fill="#b0b7bd" d="M33 12h9L30 0v9c0 1.65 1.35 3 3 3z"/></g><g><path fill="#cad1d8" d="M42 21l-9-9h9z"/></g><g><path fill="#f15642" d="M36 39c0 .825-.675 1.5-1.5 1.5h-33C.675 40.5 0 39.825 0 39V24c0-.825.675-1.5 1.5-1.5h33c.825 0 1.5.675 1.5 1.5z"/></g><g><g><path fill="#fff" d="M10.123 29.103c.804 0 1.44.696 1.44 1.535 0 .744-.636 1.453-1.44 1.453H8.122v-2.988zm-3.584 6.07c0 .529.418.827.814.827.432 0 .768-.298.768-.827V33.59h2.003c1.56 0 2.964-1.056 2.964-2.952 0-2.001-1.404-3.045-2.964-3.045H7.353c-.503 0-.815.432-.815.828z"/></g><g><path fill="#fff" d="M18.183 29.165c3.382 0 3.238 5.373 0 5.373h-1.99v-5.373zM18.291 36c5.253 0 5.373-8.3-.108-8.3h-2.746c-.397 0-.828.314-.828.745v6.813c0 .526.431.742.828.742z"/></g><g><path fill="#fff" d="M25.488 29.26v1.907h3.058c.432 0 .864.432.864.85 0 .397-.432.72-.864.72h-3.058v2.519c0 .42-.298.742-.719.742-.527 0-.85-.322-.85-.742v-6.813c0-.43.324-.744.85-.744h4.211c.528 0 .84.314.84.744a.829.829 0 0 1-.84.816h-3.492z"/></g></g><g><path fill="#cad1d8" d="M34.5 40.5H6V42h28.5c.825 0 1.5-.675 1.5-1.5V39c0 .825-.675 1.5-1.5 1.5z"/></g></g></g></svg>