<svg viewBox="0 0 74 74" xmlns="http://www.w3.org/2000/svg" id="fi_3616853"><g id="Numbers"><text fill="rgb(0,0,0)" font-family="ArialMT, Arial" font-size="18" transform="translate(37.994 -1010.544)">9<tspan x="-5.005" y="124">19</tspan><tspan x="-5.005" y="248">29</tspan><tspan x="-5.005" y="372">39</tspan><tspan x="-5.005" y="496">49</tspan><tspan x="-5.005" y="620">59</tspan><tspan x="-5.005" y="744">69</tspan><tspan x="-5.005" y="868">79</tspan><tspan x="-5.005" y="992">89</tspan><tspan x="-5.005" y="1116">99</tspan><tspan x="-10.011" y="1240">109</tspan><tspan letter-spacing="-.074em" x="-9.343" y="1364">1</tspan><tspan x="-.668" y="1364">19</tspan><tspan x="-10.011" y="1488">129</tspan><tspan x="-10.011" y="1612">139</tspan><tspan x="-10.011" y="1736">149</tspan><tspan x="-10.011" y="1860">159</tspan><tspan x="-10.011" y="1984">169</tspan><tspan x="-10.011" y="2108">179</tspan><tspan x="-10.011" y="2232">189</tspan><tspan x="-10.011" y="2356">199</tspan><tspan x="-10.011" y="2480">209</tspan><tspan x="-10.011" y="2604">219</tspan><tspan x="-10.011" y="2728">229</tspan><tspan x="-10.011" y="2852">239</tspan><tspan x="-10.011" y="2976">249</tspan><tspan x="-10.011" y="3100">259</tspan><tspan x="-10.011" y="3224">269</tspan><tspan x="-10.011" y="3348">279</tspan><tspan x="-10.011" y="3472">289</tspan><tspan x="-10.011" y="3596">299</tspan></text></g><g id="Icons"><path d="m65 72h-56a7.008 7.008 0 0 1 -7-7v-56a7.008 7.008 0 0 1 7-7h56a7.008 7.008 0 0 1 7 7v56a7.008 7.008 0 0 1 -7 7zm-56-68a5.006 5.006 0 0 0 -5 5v56a5.006 5.006 0 0 0 5 5h56a5.006 5.006 0 0 0 5-5v-56a5.006 5.006 0 0 0 -5-5z"></path><path d="m62 25.615h-2v-11.615h-11.615v-2h12.615a1 1 0 0 1 1 1z"></path><path d="m39.272 21h25.456v2h-25.456z" transform="matrix(.707 -.707 .707 .707 -.326 43.213)"></path><path d="m14 25.615h-2v-12.615a1 1 0 0 1 1-1h12.615v2h-11.615z"></path><path d="m21 9.272h2v25.456h-2z" transform="matrix(.707 -.707 .707 .707 -9.113 22)"></path><path d="m61 62h-12.615v-2h11.615v-11.615h2v12.615a1 1 0 0 1 -1 1z"></path><path d="m51 39.272h2v25.456h-2z" transform="matrix(.707 -.707 .707 .707 -21.539 52)"></path><path d="m25.615 62h-12.615a1 1 0 0 1 -1-1v-12.615h2v11.615h11.615z"></path><path d="m9.272 51h25.456v2h-25.456z" transform="matrix(.707 -.707 .707 .707 -30.326 30.787)"></path></g></svg>