<svg width="27" height="27" viewBox="0 0 27 27" fill="none" xmlns="http://www.w3.org/2000/svg">
<path d="M13 14.375C13.5523 14.375 14 13.9273 14 13.375C14 12.8227 13.5523 12.375 13 12.375C12.4477 12.375 12 12.8227 12 13.375C12 13.9273 12.4477 14.375 13 14.375Z" stroke="#444444" stroke-width="2" stroke-linecap="round" stroke-linejoin="round"/>
<path d="M13 7.5C13.5523 7.5 14 7.05228 14 6.5C14 5.94772 13.5523 5.5 13 5.5C12.4477 5.5 12 5.94772 12 6.5C12 7.05228 12.4477 7.5 13 7.5Z" stroke="#444444" stroke-width="2" stroke-linecap="round" stroke-linejoin="round"/>
<path d="M13 21.25C13.5523 21.25 14 20.8023 14 20.25C14 19.6977 13.5523 19.25 13 19.25C12.4477 19.25 12 19.6977 12 20.25C12 20.8023 12.4477 21.25 13 21.25Z" stroke="#444444" stroke-width="2" stroke-linecap="round" stroke-linejoin="round"/>
</svg>
