<svg width="18" height="18" viewBox="0 0 18 18" fill="none" xmlns="http://www.w3.org/2000/svg">
<path d="M9 0.984375V5.20312L6.89062 3.09375L9 0.984375ZM1.26562 0L18 16.7344L16.7344 18L14.6719 15.9375C13.5156 16.8438 12.2969 17.4531 11.0156 17.7656V15.7031C11.7969 15.4844 12.5469 15.0938 13.2656 14.5312L9 10.2656V17.0156L3.98438 12H0V6H4.73438L0 1.26562L1.26562 0ZM15.9844 9C15.9844 7.40625 15.5156 6 14.5781 4.78125C13.6719 3.5625 12.4844 2.73438 11.0156 2.29688V0.234375C13.0469 0.671875 14.7188 1.71875 16.0312 3.375C17.3438 5 18 6.875 18 9C18 10.5 17.6562 11.8906 16.9688 13.1719L15.4688 11.625C15.8125 10.7812 15.9844 9.90625 15.9844 9ZM13.5 9C13.5 9.28125 13.4844 9.48438 13.4531 9.60938L11.0156 7.17188V4.96875C12.6719 5.78125 13.5 7.125 13.5 9Z" />
</svg>
