<svg width="125" height="125" viewBox="0 0 125 125" fill="none" xmlns="http://www.w3.org/2000/svg">
<g opacity="0.5">
<path d="M123.055 77.9769C123.113 77.7539 123.168 77.5294 123.223 77.3047C123.169 77.5294 123.112 77.7532 123.055 77.9769Z" fill="#AFE6FF"/>
<path d="M62.5013 0.015625C38.4525 0.015625 23.6399 13.5794 23.599 13.6024C22.6709 17.8865 21.0566 24.1036 21.0566 28.6655C21.0566 63.1791 50.1616 91.1509 84.6753 91.1509C99.3835 91.1509 112.897 84.3028 123.572 75.8001C123.616 75.5338 124.994 70.0467 124.994 62.5079C124.994 27.9945 97.0147 0.015625 62.5013 0.015625Z" fill="#0AAB14"/>
<path d="M84.6684 89.3861C50.1548 89.3861 22.1762 61.4074 22.1762 26.8938C22.1762 22.3319 22.6695 17.8858 23.5975 13.6016C23.5961 13.6028 23.5949 13.604 23.5934 13.605C9.22163 25.0546 0.0078125 42.7039 0.0078125 62.507C0.0078125 74.8465 3.58409 86.3504 9.75685 96.0394L60.4369 124.966C61.1218 124.988 61.8097 124.999 62.5001 124.999C91.6734 124.999 116.17 105.006 123.055 77.976C123.112 77.7522 123.169 77.5285 123.223 77.3038C123.249 77.1969 123.485 76.1956 123.571 75.7993C112.896 84.3021 99.3767 89.3861 84.6684 89.3861Z" fill="#0AAB14"/>
<path d="M26.8091 63.8789C17.3919 63.8789 9.75781 71.513 9.75781 80.9302V96.0369C10.2837 96.8626 10.8285 97.6747 11.3917 98.4734L35.6036 118.927C43.1657 122.537 51.5676 124.673 60.4366 124.961C62.0126 121.97 62.9061 118.564 62.9061 114.948V63.8789H26.8091Z" fill="#FF965A"/>
<path d="M83.9096 112.063H31.8835C28.331 112.063 25.4512 109.183 25.4512 105.63V9.49479C25.4512 5.94229 28.331 3.0625 31.8835 3.0625H83.9099C87.4624 3.0625 90.3422 5.94229 90.3422 9.49479V105.63C90.3419 109.182 87.4621 112.063 83.9096 112.063Z" fill="#EEFDFF"/>
<path d="M90.3419 14.6062V9.49479C90.3419 5.94229 87.4621 3.0625 83.9096 3.0625H52.2657H52.2662H34.0891C34.0888 3.0625 34.0886 3.0625 34.0886 3.0625H31.8835C28.331 3.0625 25.4512 5.94229 25.4512 9.49479V14.6064H27.657V105.63C27.657 109.183 30.5368 112.063 34.0893 112.063H58.1486C54.5961 112.063 51.7163 109.183 51.7163 105.63V75.7619C51.7163 73.2837 55.3624 73.045 55.667 75.5043C55.6712 75.5379 55.6751 75.5717 55.6791 75.6058L56.2998 81.133C56.7282 84.947 59.7383 87.9569 63.5521 88.3853C67.8619 89.0921 70.4762 88.5046 73.2899 90.7502L77.6371 94.2196C80.4213 96.4417 84.288 96.5997 87.2278 94.697V29.1424C84.288 27.2397 80.4213 27.3977 77.6371 29.6198L73.2899 33.0892C72.0787 34.0557 70.6191 34.6603 69.0794 34.8333L63.5521 35.4541C59.7381 35.8825 56.7279 38.8926 56.2998 42.7066C55.6746 48.2724 55.7996 50.1079 53.9349 52.4444L51.7163 55.2244V24.8304C51.7163 19.1838 56.2937 14.6064 61.9403 14.6064H90.3419V14.6062Z" fill="#D3EFFB"/>
<path d="M83.9094 0H37.5273V6.12669H83.9096C85.7672 6.12669 87.2786 7.63803 87.2786 9.49564V105.631C87.2786 107.488 85.7672 109 83.9096 109H58.8955V115.126H83.9096C89.1455 115.126 93.4052 110.867 93.4052 105.631V9.49564C93.405 4.25977 89.1452 0 83.9094 0V0Z" fill="#30579D"/>
<path d="M59.5998 109H31.8824C30.0218 109 28.5134 107.491 28.5134 105.631V9.49564C28.5134 7.63509 30.0218 6.12669 31.8824 6.12669H38.2318C39.9238 6.12669 41.2952 4.75529 41.2952 3.06335C41.2952 1.3714 39.9238 0 38.2318 0H31.8824C26.6382 0 22.3867 4.25144 22.3867 9.49564V105.631C22.3867 110.875 26.6382 115.126 31.8824 115.126H59.5998C61.2917 115.126 62.6631 113.755 62.6631 112.063C62.6631 110.371 61.2915 109 59.5998 109Z" fill="#26457D"/>
<path d="M70.3983 10.8878H45.3924C43.7154 10.8878 42.2883 9.66658 42.0288 8.00993L41.2539 3.0625H74.5366L73.7619 8.01017C73.5024 9.66683 72.0753 10.8878 70.3983 10.8878Z" fill="#30579D"/>
<path d="M60.7387 6.5288H48.616C47.9393 6.5288 47.3906 5.9801 47.3906 5.30346C47.3906 4.62683 47.9393 4.07812 48.616 4.07812H60.7387C61.4154 4.07812 61.9641 4.62683 61.9641 5.30346C61.9641 5.9801 61.4156 6.5288 60.7387 6.5288Z" fill="#26457D"/>
<path d="M67.0535 6.5288H65.7585C65.0819 6.5288 64.5332 5.9801 64.5332 5.30346C64.5332 4.62683 65.0819 4.07812 65.7585 4.07812H67.0535C67.7303 4.07812 68.2788 4.62683 68.2788 5.30346C68.2788 5.9801 67.7301 6.5288 67.0535 6.5288Z" fill="#26457D"/>
<path d="M110.069 70.2756C110.095 70.169 110.176 67.9 111.841 65.813L115.31 61.4657C117.704 58.4661 117.704 54.209 115.31 51.2094C112.763 47.662 110.499 46.2289 110.097 42.6514L109.476 37.1241C109.048 33.3101 106.038 30.3 102.224 29.8718L96.6968 29.2511C93.123 28.8496 91.7236 26.6122 88.139 24.0377C85.1394 21.6437 80.8823 21.6437 77.8825 24.0377L73.5352 27.5072C72.3241 28.4737 70.8645 29.0783 69.3247 29.2513L63.7974 29.8721C63.3948 29.9172 63.0017 29.9929 62.6191 30.0936V70.2759H110.069V70.2756Z" fill="#DD544F"/>
<path d="M103.063 69.9352C80.9708 69.9352 63.0488 52.0893 62.9206 30.0273C59.5301 30.7839 56.9387 33.6115 56.5439 37.1277C55.8372 41.4375 56.4246 44.0518 54.179 46.8655L50.7096 51.2127C48.3155 54.2123 48.3155 58.4694 50.7096 61.469C53.2573 65.0164 55.5213 66.4496 55.9229 70.0268L56.5437 75.5541C56.9721 79.3681 59.9822 82.378 63.796 82.8064C68.1058 83.5131 70.7201 82.9257 73.5338 85.1713L77.881 88.6407C80.8806 91.0345 85.1377 91.0345 88.1373 88.6407C91.6847 86.093 93.1179 83.829 96.6951 83.4274L102.222 82.8066C106.036 82.3782 109.046 79.3681 109.475 75.5543C110.13 69.8482 110.063 70.042 110.215 69.2994C107.894 69.7168 105.504 69.9352 103.063 69.9352Z" fill="#D80A61"/>
<path d="M67.3086 55.7798V49.7869C67.3086 45.6087 70.0519 44.0896 73.6392 44.0896C77.1841 44.0896 79.9698 45.6087 79.9698 49.7869V55.7798C79.9698 59.9579 77.1843 61.4771 73.6392 61.4771C70.0519 61.4771 67.3086 59.9579 67.3086 55.7798ZM75.7495 49.7869C75.7495 48.3942 74.9476 47.7612 73.6394 47.7612C72.331 47.7612 71.5716 48.3942 71.5716 49.7869V55.7798C71.5716 57.1725 72.3313 57.8055 73.6394 57.8055C74.9476 57.8055 75.7495 57.1725 75.7495 55.7798V49.7869ZM93.0527 44.5961C93.0527 44.8493 93.0106 45.1446 92.8839 45.3977L78.0284 75.8263C77.7328 76.4593 76.9309 76.8816 76.1291 76.8816C74.6942 76.8816 73.7656 75.6999 73.7656 74.6448C73.7656 74.3917 73.8499 74.0961 73.9766 73.843L88.79 43.4144C89.1277 42.6968 89.8029 42.3594 90.5626 42.3594C91.7446 42.3594 93.0527 43.2455 93.0527 44.5961ZM86.68 69.3693V63.3764C86.68 59.1982 89.4233 57.6788 93.0106 57.6788C96.5557 57.6788 99.3412 59.1982 99.3412 63.3764V69.3693C99.3412 73.5474 96.5557 75.0666 93.0106 75.0666C89.4233 75.0666 86.68 73.5474 86.68 69.3693ZM95.1209 63.3764C95.1209 61.9834 94.319 61.3504 93.0106 61.3504C91.7022 61.3504 90.9427 61.9834 90.9427 63.3764V69.3693C90.9427 70.762 91.7024 71.395 93.0106 71.395C94.3188 71.395 95.1209 70.762 95.1209 69.3693V63.3764Z" fill="#D80A61"/>
<path d="M67.3086 52.104V46.1111C67.3086 41.9329 70.0519 40.4138 73.6392 40.4138C77.1841 40.4138 79.9698 41.9329 79.9698 46.1111V52.104C79.9698 56.2822 77.1843 57.8013 73.6392 57.8013C70.0519 57.8013 67.3086 56.2822 67.3086 52.104ZM75.7495 46.1111C75.7495 44.7184 74.9476 44.0854 73.6394 44.0854C72.331 44.0854 71.5716 44.7184 71.5716 46.1111V52.104C71.5716 53.4967 72.3313 54.1297 73.6394 54.1297C74.9476 54.1297 75.7495 53.4967 75.7495 52.104V46.1111ZM93.0527 40.9203C93.0527 41.1735 93.0106 41.4688 92.8839 41.7219L78.0284 72.1505C77.7328 72.7836 76.9309 73.2058 76.1291 73.2058C74.6942 73.2058 73.7656 72.0241 73.7656 70.9691C73.7656 70.7159 73.8499 70.4204 73.9766 70.1672L88.79 39.7386C89.1277 39.0211 89.8029 38.6836 90.5626 38.6836C91.7446 38.6836 93.0527 39.5698 93.0527 40.9203ZM86.68 65.6935V59.7006C86.68 55.5224 89.4233 54.003 93.0106 54.003C96.5557 54.003 99.3412 55.5224 99.3412 59.7006V65.6935C99.3412 69.8717 96.5557 71.3908 93.0106 71.3908C89.4233 71.3911 86.68 69.8717 86.68 65.6935ZM95.1209 59.7006C95.1209 58.3076 94.319 57.6746 93.0106 57.6746C91.7022 57.6746 90.9427 58.3076 90.9427 59.7006V65.6935C90.9427 67.0862 91.7024 67.7192 93.0106 67.7192C94.3188 67.7192 95.1209 67.0862 95.1209 65.6935V59.7006Z" fill="#0AAB14"/>
<path d="M36.2616 69.8474C28.9902 77.5359 34.0471 72.1888 14.6441 92.7051L14.6444 92.7123C13.3242 94.3282 12.218 96.2817 11.3926 98.4762C17.5796 107.251 25.9687 114.36 35.7567 119.002C37.2874 115.809 38.1812 111.961 38.1812 107.819C38.1812 104.426 37.5808 101.233 36.5223 98.4341C35.3703 95.3884 36.0253 91.9562 38.2932 89.6195L47.0303 80.6162C50.004 77.6425 50.004 72.8211 47.0303 69.8474C44.0564 66.8738 39.2352 66.8738 36.2616 69.8474Z" fill="#FFBE82"/>
<path d="M35.2793 75.9288L32.752 73.5036L38.8693 67.1282C40.8348 65.0799 44.0888 65.0125 46.1371 66.9782L46.3745 67.2061C47.3847 68.1754 47.4178 69.7798 46.4485 70.79L41.6437 75.7975C39.9226 77.5911 37.073 77.6499 35.2793 75.9288Z" fill="#FFCEA1"/>
</g>
</svg>
