<svg width="24" height="18" viewBox="0 0 24 18" fill="none" xmlns="http://www.w3.org/2000/svg">
<path d="M0.984375 6.98438C4.01562 6.98438 6.60938 8.0625 8.76562 10.2188C10.9219 12.375 12 14.9688 12 18H9.98438C9.98438 15.5 9.09375 13.375 7.3125 11.625C5.5625 9.875 3.45312 9 0.984375 9V6.98438ZM0.984375 11.0156C2.92188 11.0156 4.57812 11.7031 5.95312 13.0781C7.32812 14.4219 8.01562 16.0625 8.01562 18H6C6 16.625 5.5 15.4531 4.5 14.4844C3.53125 13.4844 2.35938 12.9844 0.984375 12.9844V11.0156ZM0.984375 15C1.79688 15 2.5 15.2969 3.09375 15.8906C3.6875 16.4844 3.98438 17.1875 3.98438 18H0.984375V15ZM21 0C21.5312 0 22 0.203125 22.4062 0.609375C22.8125 1.01562 23.0156 1.48438 23.0156 2.01562V15.9844C23.0156 16.5156 22.8125 16.9844 22.4062 17.3906C22 17.7969 21.5312 18 21 18H14.0156V15.9844H21V2.01562H3V5.01562H0.984375V2.01562C0.984375 1.48438 1.1875 1.01562 1.59375 0.609375C2 0.203125 2.46875 0 3 0H21Z" fill="#01BD00"/>
</svg>
