<svg xmlns="http://www.w3.org/2000/svg" width="21" height="18" viewBox="0 0 21 18"><g><g><path fill="#00aaec" d="M18.526 2.81A4.469 4.469 0 0 0 20.421.33a8.408 8.408 0 0 1-2.738 1.087A4.22 4.22 0 0 0 14.539 0c-2.378 0-4.307 2.01-4.307 4.488 0 .352.037.693.11 1.022-3.58-.188-6.754-1.972-8.88-4.69a4.626 4.626 0 0 0-.583 2.258c0 1.556.76 2.93 1.917 3.735a4.18 4.18 0 0 1-1.953-.56v.056c0 2.175 1.485 3.99 3.458 4.4a4.048 4.048 0 0 1-1.136.158c-.277 0-.548-.027-.81-.08.548 1.783 2.138 3.08 4.024 3.115A8.425 8.425 0 0 1 0 15.763a11.862 11.862 0 0 0 6.604 2.015c7.926 0 12.259-6.838 12.259-12.769 0-.195-.004-.39-.011-.582A8.927 8.927 0 0 0 21 2.105a8.314 8.314 0 0 1-2.474.706z"/></g></g></svg>