<svg width="30" height="24" viewBox="0 0 30 24" fill="none" xmlns="http://www.w3.org/2000/svg">
<path d="M28.0952 0.332031H1.90479C0.852885 0.332031 0 1.18486 0 2.23677V21.7606C0 22.8125 0.852885 23.6653 1.90479 23.6653H28.0952C29.1471 23.6653 30 22.8125 30 21.7606V2.23677C30 1.18486 29.1472 0.332031 28.0952 0.332031ZM28.0952 2.23677V16.0896L24.3413 12.6767C23.7771 12.1639 22.9095 12.1844 22.3704 12.7239L18.5713 16.5224L11.0805 7.57484C10.5143 6.89864 9.47711 6.892 8.90238 7.56008L1.90479 15.6925V2.23677H28.0952ZM20 7.23677C20 5.79009 21.1723 4.61771 22.619 4.61771C24.0657 4.61771 25.238 5.79009 25.238 7.23677C25.238 8.68345 24.0658 9.85578 22.619 9.85578C21.1723 9.85583 20 8.68345 20 7.23677Z" fill="#0AAB14"/>
</svg>
