<svg width="26" height="26" viewBox="0 0 26 26" fill="none" xmlns="http://www.w3.org/2000/svg">
<g filter="url(#filter0_d)">
<path d="M15.0156 4.23438C17.0469 4.67188 18.7188 5.71875 20.0312 7.375C21.3438 9 22 10.875 22 13C22 15.125 21.3438 17.0156 20.0312 18.6719C18.7188 20.2969 17.0469 21.3281 15.0156 21.7656V19.7031C16.4844 19.2656 17.6719 18.4375 18.5781 17.2188C19.5156 16 19.9844 14.5938 19.9844 13C19.9844 11.4062 19.5156 10 18.5781 8.78125C17.6719 7.5625 16.4844 6.73438 15.0156 6.29688V4.23438ZM15.0156 8.96875C16.6719 9.78125 17.5 11.125 17.5 13C17.5 14.875 16.6719 16.2188 15.0156 17.0312V8.96875ZM4 10H7.98438L13 4.98438V21.0156L7.98438 16H4V10Z" fill="white"/>
</g>
<defs>
<filter id="filter0_d" x="0" y="0.234375" width="26" height="25.5312" filterUnits="userSpaceOnUse" color-interpolation-filters="sRGB">
<feFlood flood-opacity="0" result="BackgroundImageFix"/>
<feColorMatrix in="SourceAlpha" type="matrix" values="0 0 0 0 0 0 0 0 0 0 0 0 0 0 0 0 0 0 127 0"/>
<feOffset/>
<feGaussianBlur stdDeviation="2"/>
<feColorMatrix type="matrix" values="0 0 0 0 0 0 0 0 0 0 0 0 0 0 0 0 0 0 0.25 0"/>
<feBlend mode="normal" in2="BackgroundImageFix" result="effect1_dropShadow"/>
<feBlend mode="normal" in="SourceGraphic" in2="effect1_dropShadow" result="shape"/>
</filter>
</defs>
</svg>
