<svg width="140" height="140" viewBox="0 0 140 140" fill="none" xmlns="http://www.w3.org/2000/svg">
<path d="M127.273 6.36353H12.7274C5.69536 6.36353 0 12.0592 0 19.0909V95.4546C0 102.486 5.69536 108.182 12.7274 108.182H57.2728V120.909H44.5454V133.636H95.4546V120.909H82.7272V108.182H127.273C134.304 108.182 140 102.486 140 95.4543V19.0909C140 12.0592 134.305 6.36353 127.273 6.36353ZM127.273 95.4546H12.7274V19.0909H127.273V95.4546Z" fill="#DDDDDD"/>
<g opacity="0.5">
<path d="M65.5662 34.5753C64.4799 32.0891 60.4612 27.5284 56.1134 25.2117C55.0154 24.6266 53.6691 25.3138 53.4785 26.5434C53.3952 27.0811 53.3494 27.56 53.4032 27.7723C49.558 26.7349 45.8652 28.9719 42.1378 30.2895C41.79 30.4124 41.5169 30.6855 41.394 31.0333C40.0764 34.7607 37.8394 38.4535 38.8768 42.2987C38.6645 42.2449 38.1856 42.2906 37.6479 42.3739C36.4183 42.5645 35.7311 43.9107 36.3162 45.0088C38.6329 49.3566 43.1936 53.3754 45.6798 54.4616L65.5662 34.5753Z" fill="#4B5165"/>
<path d="M92.8262 83.7199C92.3383 81.2803 87.2329 67.2417 85.2385 63.067C85.5574 60.5578 84.9198 58.1711 83.2495 56.5008C79.9071 53.1584 73.6954 53.9507 69.3756 58.2706C65.0557 62.5906 64.2634 68.8021 67.6059 72.1445C67.6597 72.1984 67.7164 72.2481 67.7717 72.2999C65.4102 76.634 62.7626 82.0193 62.3568 82.8478C61.4876 84.6221 62.2213 86.7652 63.9959 87.6343C65.7678 88.5025 67.9121 87.7721 68.7824 85.9952C69.9878 83.5345 72.9718 77.5858 75.0172 73.9889C77.012 73.5693 79.0405 72.5592 80.8133 70.9969C82.9002 76.3629 85.5419 83.8399 85.8099 85.123C86.1982 87.0652 88.0866 88.3161 90.0197 87.9295C91.9572 87.5423 93.2138 85.6574 92.8262 83.7199Z" fill="#FFD3BD"/>
<path d="M92.0841 81.1688C90.4851 76.2335 86.8484 66.437 85.2384 63.0671C85.5573 60.5579 84.9197 58.1712 83.2494 56.501C79.907 53.1585 73.6953 53.9508 69.3755 58.2707C65.0556 62.5907 64.2633 68.8022 67.6057 72.1447C67.6596 72.1985 67.7162 72.2483 67.7716 72.3001C66.2997 75.0014 64.7168 78.1108 63.6348 80.271C65.0224 80.6246 68.3457 81.8507 70.0048 83.5325C71.447 80.6567 73.4925 76.6699 75.0171 73.9891C77.0119 73.5695 79.0404 72.5594 80.8132 70.9971C82.3765 75.0169 84.2512 80.2213 85.2061 83.1191C86.3044 81.925 89.8471 80.7261 92.0841 81.1688Z" fill="#4B5165"/>
<path d="M57.3052 78.3477C56.2422 80.044 54.0053 80.5576 52.3088 79.4948C50.6126 78.4318 50.0992 76.1949 51.1619 74.4986C52.3512 72.6006 57.3784 59.8995 57.6267 57.815C57.8612 55.829 59.6512 54.399 61.64 54.6267C63.6289 54.8544 65.0566 56.652 64.829 58.6409C64.4213 62.18 58.8609 75.8649 57.3052 78.3477Z" fill="#FFD3BD"/>
<path d="M72.9362 51.9267C71.4894 53.3102 69.195 53.259 67.8113 51.8121C66.4277 50.3652 66.4748 48.0673 67.9258 46.6873C69.3741 45.3048 76.2189 35.9378 78.6146 31.9026C79.6364 30.1816 81.8606 29.6142 83.5819 30.6362C85.3032 31.6583 85.8703 33.8822 84.8483 35.6035C82.8706 38.9345 75.4187 49.55 72.9362 51.9267Z" fill="#FFBE9D"/>
<path d="M77.7087 66.6042C79.6387 64.6742 85.8094 57.6561 82.4525 54.9146C76.8679 50.3539 64.8525 45.4116 60.6843 49.5798C56.5161 53.748 61.4584 65.7634 66.0191 71.348C68.7605 74.7049 75.7787 68.5342 77.7087 66.6042Z" fill="#8ADA00"/>
<path d="M67.7052 56.601C69.7947 54.5114 71.3571 52.0411 72.301 49.3891C67.6386 47.7508 62.9756 47.2886 60.6841 49.5799C58.3926 51.8714 58.855 56.5344 60.4933 61.1968C63.1453 60.2528 65.6156 58.6906 67.7052 56.601Z" fill="#0AAB14"/>
<path d="M45.8984 59.5113C48.4246 59.5113 50.4725 57.4634 50.4725 54.9372C50.4725 52.411 48.4246 50.363 45.8984 50.363C43.3721 50.363 41.3242 52.411 41.3242 54.9372C41.3242 57.4634 43.3721 59.5113 45.8984 59.5113Z" fill="#FFD3BD"/>
<path d="M66.0419 39.3683C68.5681 39.3683 70.6161 37.3203 70.6161 34.7941C70.6161 32.2679 68.5681 30.22 66.0419 30.22C63.5157 30.22 61.4678 32.2679 61.4678 34.7941C61.4678 37.3203 63.5157 39.3683 66.0419 39.3683Z" fill="#FFBE9D"/>
<path d="M65.2589 54.1593C70.8687 48.5496 71.4583 40.044 66.5759 35.1616C61.6936 30.2792 53.188 30.8689 47.5782 36.4786C41.9685 42.0884 41.3789 50.5939 46.2612 55.4763C51.1436 60.3587 59.6492 59.7691 65.2589 54.1593Z" fill="#FFD3BD"/>
<path d="M68.3358 49.9013C54.4564 60.7414 44.9918 47.9551 43.8739 42.2017C42.1169 46.9161 42.8618 52.0759 46.2634 55.4775C51.1466 60.3607 59.6534 59.771 65.264 54.1605C66.5565 52.8678 67.5818 51.4216 68.3358 49.9013Z" fill="#FFBE9D"/>
<path d="M52.7807 55.9413C54.2337 54.4883 54.4736 52.3725 53.3165 51.2155C52.1595 50.0585 50.0437 50.2983 48.5908 51.7513C47.1378 53.2042 46.8979 55.32 48.055 56.4771C49.212 57.6341 51.3278 57.3942 52.7807 55.9413Z" fill="#EDA1AB"/>
<path d="M67.0425 41.6822C68.4954 40.2293 68.7353 38.1135 67.5783 36.9565C66.4212 35.7994 64.3054 36.0393 62.8525 37.4923C61.3995 38.9452 61.1596 41.061 62.3167 42.218C63.4737 43.3751 65.5895 43.1352 67.0425 41.6822Z" fill="#EDA1AB"/>
<path d="M50.2075 51.2198C49.9714 51.2198 49.7351 51.1298 49.5548 50.9496L48.4793 49.8741C48.1189 49.5135 48.1189 48.9293 48.4793 48.5689C48.8398 48.2086 49.424 48.2086 49.7844 48.5689L50.86 49.6445C51.2204 50.005 51.2204 50.5892 50.86 50.9496C50.6799 51.1296 50.4436 51.2198 50.2075 51.2198Z" fill="#4B5165"/>
<path d="M61.4019 40.0248C61.1658 40.0248 60.9295 39.9347 60.7494 39.7546L59.6737 38.679C59.3132 38.3186 59.3132 37.7343 59.6736 37.374C60.0341 37.0135 60.6185 37.0136 60.9788 37.3739L62.0544 38.4494C62.415 38.8098 62.415 39.3942 62.0546 39.7545C61.8743 39.9347 61.638 40.0248 61.4019 40.0248Z" fill="#4B5165"/>
<path d="M54.1138 46.8037C54.0292 46.8037 53.9445 46.8009 53.8596 46.7949C53.351 46.76 52.9673 46.3195 53.0022 45.8109C53.0372 45.3025 53.4766 44.9216 53.9862 44.9536C54.5195 44.9899 55.0415 44.7951 55.4184 44.4182C55.7953 44.0414 55.9903 43.5193 55.9537 42.9859C55.9189 42.4774 56.3028 42.0368 56.8112 42.002C57.3196 41.9687 57.7602 42.351 57.7951 42.8595C57.8683 43.9254 57.4777 44.9692 56.7236 45.7233C56.0293 46.4174 55.0899 46.8037 54.1138 46.8037Z" fill="#4B5165"/>
</g>
</svg>
